<svg xmlns="http://www.w3.org/2000/svg" viewBox="0 0 926.88 926.88"><defs><style>.cls-1,.cls-5{fill:none;}.cls-1,.cls-2,.cls-4,.cls-5{stroke:#1c1c1c;stroke-miterlimit:10;}.cls-2{fill:#fff;}.cls-2,.cls-5{stroke-width:34px;}.cls-3,.cls-4{fill:#1c1c1c;}</style></defs><g id="Capa_2" data-name="Capa 2"><g id="Logo-mini"><line class="cls-1" x1="463.03" y1="148.35" x2="461.43" y2="778.52"/><circle class="cls-2" cx="463.44" cy="463.44" r="446.44"/><path class="cls-3" d="M239.86,463.75c9.27-1.89,18.53-3.36,27.8-4.71s18.53-2.51,27.79-3.6q27.8-3.15,55.59-5c37.06-2.55,74.12-3.63,111.18-3.67s74.12,1.09,111.18,3.62q27.79,1.88,55.59,5c9.27,1.09,18.53,2.24,27.8,3.61s18.53,2.84,27.79,4.74c-9.26,1.9-18.53,3.39-27.79,4.74S638.26,471,629,472.11q-27.79,3.15-55.59,5c-37.06,2.53-74.12,3.61-111.18,3.61S388.1,479.63,351,477.09q-27.8-1.87-55.59-5c-9.26-1.08-18.53-2.23-27.79-3.6S249.13,465.64,239.86,463.75Z"/><circle class="cls-4" cx="684.4" cy="145.57" r="55.17"/><circle class="cls-4" cx="239.86" cy="781.94" r="55.17"/></g><g id="Exterior"><path class="cls-5" d="M239.86,778.52C242,837.22,287.08,884.29,341,888.88c60.33,5.14,117.61-44.17,120.47-110.36-4.15-324.15-2.7-563.64,1.6-630.17.82-12.68,3.2-41.59,22.92-67.47,29.24-38.38,76.19-42.75,79.23-43,6.65-.52,49.4-3.14,84.31,29.56,31.3,29.32,34.43,66.55,34.92,74.67"/></g></g></svg>